<svg width="2284" height="2163" viewBox="0 0 2284 2163" fill="none" xmlns="http://www.w3.org/2000/svg">
<path fill-rule="evenodd" clip-rule="evenodd" d="M209.879 1272.22C193.546 1203.92 185.379 1134.33 185.379 1059.59C185.379 809.596 279.297 595.68 465.773 419.136C652.248 242.591 878.197 153.675 1142.26 153.675C1154.51 153.675 1166.76 153.675 1179.01 154.963C1428.1 162.695 1640.43 250.323 1818.74 419.136C2005.22 595.68 2099.14 809.596 2099.14 1059.59C2099.14 1125.31 2092.33 1188.46 2080.08 1247.74C2058.3 1245.16 2035.16 1243.87 2012.02 1243.87C1903.13 1245.16 1810.57 1279.95 1731.63 1346.96C1688.07 1332.79 1643.15 1326.34 1594.15 1327.63C1541.07 1328.92 1490.71 1336.65 1444.43 1353.4C1369.57 1288.97 1279.73 1255.47 1177.65 1252.89C1172.2 1252.89 1165.4 1252.89 1159.95 1252.89C1051.06 1254.18 958.504 1288.97 879.558 1354.69C836.002 1341.81 791.084 1335.36 742.083 1336.65C688.999 1336.65 638.637 1345.67 592.358 1361.14C512.051 1292.84 416.772 1260.62 306.52 1261.91C272.492 1261.91 241.185 1265.78 209.879 1272.22Z" fill="#10B981"/>
<path d="M499.813 1723.24C528.396 1703.91 559.702 1688.45 592.37 1675.56M209.891 1272.22C241.197 1265.77 273.864 1261.91 306.531 1261.91C416.783 1260.62 512.063 1292.84 592.37 1361.13C638.648 1345.67 689.01 1337.94 742.095 1336.65C791.095 1335.36 836.013 1341.8 879.569 1354.69C958.515 1287.68 1052.43 1254.18 1159.96 1252.89C1165.41 1252.89 1172.21 1252.89 1177.66 1252.89C1279.74 1255.47 1369.58 1288.97 1444.44 1353.4C1490.72 1337.94 1541.08 1328.92 1594.17 1327.63C1641.81 1327.63 1688.08 1334.07 1731.64 1346.96C1810.59 1279.95 1903.14 1245.16 2012.03 1243.87C2035.17 1243.87 2058.31 1245.16 2080.09 1247.73L209.891 1272.22ZM2055.59 1339.23C2041.98 1337.94 2027.01 1336.65 2013.4 1336.65C1943.98 1337.94 1884.09 1355.98 1831 1390.77C1854.14 1406.24 1877.28 1422.99 1899.06 1443.61C1905.87 1448.76 1912.67 1455.21 1918.12 1461.65C1946.7 1446.18 1979.37 1438.45 2016.12 1437.16L2055.59 1339.23ZM1915.39 1462.94C1934.45 1482.27 1950.78 1502.89 1965.76 1524.79L1915.39 1462.94ZM1444.44 1353.4C1411.77 1366.29 1380.47 1381.75 1351.88 1401.08C1331.47 1415.26 1312.41 1430.72 1293.35 1447.47C1286.55 1455.21 1279.74 1462.94 1272.94 1469.38C1244.35 1500.31 1222.58 1532.52 1207.6 1568.61C1241.63 1571.18 1274.3 1577.63 1305.6 1587.94C1317.85 1567.32 1331.47 1547.99 1347.8 1528.66C1351.88 1522.21 1357.33 1517.06 1362.77 1511.91C1381.83 1493.86 1402.25 1478.4 1424.02 1465.51C1452.61 1448.76 1482.55 1435.88 1516.58 1426.86C1541.08 1421.7 1568.3 1417.83 1595.53 1417.83C1617.3 1417.83 1639.08 1419.12 1659.5 1422.99C1693.53 1428.14 1726.2 1439.74 1756.14 1455.21C1782 1468.09 1805.14 1486.13 1828.28 1506.75C1832.36 1510.62 1836.45 1514.48 1841.89 1518.35C1859.59 1536.39 1874.56 1555.72 1885.45 1575.05C1901.78 1569.89 1919.48 1566.03 1938.53 1562.16L1444.44 1353.4ZM1306.97 1589.22C1339.63 1600.82 1372.3 1616.29 1402.25 1635.62C1411.77 1617.57 1425.38 1600.82 1440.36 1585.36C1451.25 1575.05 1463.5 1566.03 1475.75 1558.3C1504.33 1540.26 1534.28 1528.66 1568.3 1523.5C1579.19 1522.21 1590.08 1520.93 1600.97 1520.93C1603.69 1520.93 1606.42 1520.93 1610.5 1522.21C1644.53 1522.21 1677.19 1529.95 1705.78 1544.12C1726.2 1554.43 1745.25 1567.32 1762.95 1582.78C1775.2 1594.38 1784.72 1605.98 1792.89 1618.86C1821.47 1602.11 1852.78 1589.22 1885.45 1578.92L1306.97 1589.22ZM1207.6 1568.61C1198.08 1567.32 1187.19 1567.32 1177.66 1567.32C1172.21 1567.32 1165.41 1567.32 1159.96 1567.32C1151.8 1567.32 1142.27 1567.32 1134.1 1568.61C1098.71 1571.18 1064.68 1576.34 1032.02 1586.65C1000.71 1595.67 969.404 1608.55 940.82 1625.31C919.042 1638.19 898.625 1652.37 879.569 1669.12C913.598 1680.72 946.265 1694.89 977.571 1712.93C1030.66 1678.14 1091.91 1660.1 1161.32 1658.81C1162.69 1658.81 1164.05 1658.81 1164.05 1658.81C1169.49 1658.81 1173.57 1658.81 1179.02 1660.1H1180.38C1245.71 1662.68 1304.24 1680.72 1354.61 1715.51C1383.19 1696.18 1413.13 1680.72 1447.16 1667.83C1433.55 1656.23 1419.94 1644.64 1404.97 1635.62L1207.6 1568.61ZM1792.89 1617.57C1771.11 1630.46 1750.7 1644.64 1731.64 1661.39C1762.95 1670.41 1791.53 1683.3 1820.11 1698.76L1792.89 1617.57ZM1444.44 1667.83C1490.72 1651.08 1541.08 1642.06 1594.17 1642.06C1641.81 1642.06 1688.08 1648.5 1731.64 1661.39L1444.44 1667.83ZM1731.64 1348.25C1765.67 1358.56 1798.34 1372.73 1829.64 1392.06L1731.64 1348.25ZM1353.24 1401.08C1301.52 1366.29 1244.35 1346.96 1179.02 1345.67C1173.57 1345.67 1168.13 1345.67 1161.32 1345.67C1091.91 1345.67 1030.66 1363.71 977.571 1399.79C1000.71 1413.97 1023.85 1432.01 1045.63 1451.34C1052.43 1457.78 1057.88 1464.23 1064.68 1469.38C1094.63 1453.92 1128.66 1446.18 1166.77 1446.18C1170.85 1446.18 1174.94 1446.18 1180.38 1446.18C1214.41 1447.47 1247.08 1455.21 1275.66 1470.67L1353.24 1401.08ZM593.731 1361.13C561.064 1374.02 529.757 1390.77 501.174 1410.1C480.757 1424.28 461.701 1439.74 442.645 1457.78C435.839 1464.23 429.033 1471.96 422.228 1478.4C399.088 1505.46 378.671 1532.52 363.699 1563.45C360.977 1568.61 358.254 1573.76 355.532 1578.92C358.254 1578.92 360.977 1578.92 363.699 1580.2C395.005 1582.78 424.95 1589.22 454.895 1598.25C467.145 1577.63 480.757 1557.01 497.09 1538.97C502.535 1533.81 507.979 1528.66 513.424 1523.5C532.48 1504.17 551.536 1488.71 573.314 1477.11C601.898 1460.36 633.204 1447.47 665.871 1439.74C691.733 1434.59 717.594 1432.01 746.178 1432.01C767.956 1432.01 789.734 1433.3 810.151 1435.88C844.18 1441.03 876.847 1452.63 906.792 1469.38C931.292 1482.27 955.793 1499.02 978.932 1520.93C983.016 1524.79 987.099 1528.66 991.182 1532.52C1008.88 1550.57 1023.85 1569.89 1034.74 1590.51L593.731 1361.13ZM453.534 1596.96C487.562 1608.55 520.23 1622.73 550.174 1643.35C559.702 1625.31 573.314 1608.55 588.286 1593.09C599.175 1582.78 610.064 1573.76 622.315 1564.74C649.537 1547.99 680.843 1536.39 714.872 1531.24C725.761 1529.95 736.65 1528.66 747.539 1528.66C750.261 1528.66 754.345 1528.66 757.067 1528.66C791.096 1528.66 822.402 1536.39 852.347 1550.57C872.764 1559.59 891.82 1573.76 909.514 1590.51C921.765 1600.82 932.654 1612.42 940.82 1625.31L453.534 1596.96ZM550.174 1643.35C565.147 1652.37 578.758 1663.97 592.37 1675.56C638.648 1660.1 689.01 1651.08 742.095 1651.08C791.095 1649.79 836.013 1656.23 879.569 1669.12L550.174 1643.35ZM1134.1 1568.61C1116.41 1532.52 1093.27 1500.31 1063.32 1469.38L1134.1 1568.61ZM977.571 1399.79C946.265 1381.75 913.598 1366.29 879.569 1355.98L977.571 1399.79ZM1180.38 1965.51C1193.99 1897.21 1223.94 1837.93 1274.3 1783.81C1245.71 1768.35 1213.05 1760.61 1179.02 1759.33C1174.94 1759.33 1170.85 1759.33 1165.41 1759.33C1128.66 1759.33 1094.63 1768.35 1063.32 1783.81C1115.05 1837.93 1147.71 1898.5 1162.69 1966.8L1180.38 1965.51ZM571.953 1787.68C600.536 1770.92 631.843 1758.04 664.51 1750.31C690.371 1745.15 716.233 1742.57 744.817 1742.57C766.595 1742.57 788.373 1743.86 808.79 1747.73C842.819 1752.88 875.486 1764.48 905.431 1779.94C929.931 1792.83 954.432 1810.87 977.571 1831.49C981.654 1835.36 985.738 1839.22 989.821 1843.09C1025.21 1879.17 1049.71 1919.12 1063.32 1964.22L571.953 1787.68ZM977.571 1712.93C1000.71 1727.11 1023.85 1745.15 1045.63 1764.48C1052.43 1770.92 1057.88 1777.37 1064.68 1782.52L977.571 1712.93ZM675.399 1854.69C687.649 1850.82 701.261 1846.95 714.872 1845.67C725.761 1844.38 736.65 1843.09 747.539 1843.09C750.261 1843.09 754.345 1843.09 757.067 1843.09C791.096 1843.09 822.402 1850.82 852.347 1864.99C872.764 1874.02 891.82 1888.19 909.514 1903.65C923.126 1915.25 934.015 1926.85 942.182 1941.03C943.543 1943.6 944.904 1946.18 947.626 1948.76L675.399 1854.69ZM1282.47 1956.49C1294.72 1915.25 1317.85 1877.88 1349.16 1843.09C1353.24 1836.64 1358.69 1831.49 1364.13 1826.34C1383.19 1808.29 1403.61 1792.83 1425.38 1779.94C1453.97 1763.19 1483.91 1750.31 1517.94 1741.28C1542.44 1736.13 1569.66 1732.26 1596.89 1732.26C1618.67 1732.26 1640.44 1734.84 1660.86 1738.71C1690.81 1743.86 1718.03 1751.59 1745.25 1764.48L1282.47 1956.49ZM1413.13 1932C1421.3 1920.41 1429.47 1910.1 1440.36 1898.5C1451.25 1888.19 1463.5 1879.17 1475.75 1871.44C1504.33 1853.4 1534.28 1841.8 1568.3 1836.64C1579.19 1835.36 1590.08 1834.07 1600.97 1834.07C1603.69 1834.07 1606.42 1834.07 1610.5 1835.36C1620.03 1835.36 1628.19 1836.64 1637.72 1837.93L1413.13 1932ZM1274.3 1783.81C1281.1 1776.08 1287.91 1769.64 1294.72 1761.9C1313.77 1743.86 1332.83 1728.4 1353.24 1714.22L1274.3 1783.81ZM499.813 1410.1C444.006 1371.44 380.033 1353.4 307.892 1354.69C283.392 1354.69 258.892 1357.27 235.752 1362.42L499.813 1410.1ZM277.947 1456.49C288.836 1455.21 301.087 1453.92 313.337 1453.92C352.81 1453.92 389.561 1461.65 422.228 1478.4L277.947 1456.49ZM494.368 1727.11C495.729 1725.82 498.451 1724.53 499.813 1723.24C490.285 1716.8 479.395 1710.36 468.506 1705.2L494.368 1727.11Z" stroke="#10B981" stroke-width="3" stroke-miterlimit="3" stroke-linecap="round"/>
<path fill-rule="evenodd" clip-rule="evenodd" d="M1946.68 1843.09C1724.81 2053.14 1456.67 2158.81 1142.25 2158.81C827.827 2158.81 559.683 2053.14 337.818 1843.09C115.953 1633.04 4.33984 1379.18 4.33984 1081.5C4.33984 783.821 115.953 529.958 337.818 319.909C559.683 109.859 827.827 4.19043 1142.25 4.19043C1456.67 4.19043 1724.81 109.859 1946.68 319.909C2168.55 529.958 2280.16 783.821 2280.16 1081.5C2280.16 1379.18 2168.55 1633.04 1946.68 1843.09Z" stroke="#10B981" stroke-width="7" stroke-miterlimit="3" stroke-linecap="round"/>
</svg>
